<svg width="324" height="54" xmlns="http://www.w3.org/2000/svg"><g fill="#5A6664" fill-rule="evenodd"><circle cx="27" cy="27" r="4"/><circle cx="135" cy="27" r="4"/><circle cx="94" cy="14" r="4"/><circle cx="148" cy="14" r="4"/><circle cx="68" cy="40" r="4"/><circle cx="122" cy="40" r="4"/><circle cx="176" cy="14" r="4"/><circle cx="202" cy="14" r="4"/><circle cx="202" cy="40" r="4"/><circle cx="176" cy="40" r="4"/><circle cx="243" cy="27" r="4"/><circle cx="230" cy="14" r="4"/><circle cx="256" cy="14" r="4"/><circle cx="256" cy="40" r="4"/><circle cx="230" cy="40" r="4"/><circle cx="284" cy="27" r="4"/><circle cx="310" cy="27" r="4"/><circle cx="284" cy="14" r="4"/><circle cx="310" cy="14" r="4"/><circle cx="310" cy="40" r="4"/><circle cx="284" cy="40" r="4"/></g></svg>