<svg width="288" height="48" viewBox="0 0 288 48" xmlns="http://www.w3.org/2000/svg">
  <g fill="#5A6664" fill-rule="evenodd">
    <circle cx="276" cy="36" r="4"/>
    <circle cx="252" cy="36" r="4"/>
    <circle cx="276" cy="24" r="4"/>
    <circle cx="252" cy="24" r="4"/>
    <circle cx="276" cy="12" r="4"/>
    <circle cx="252" cy="12" r="4"/>
    <circle cx="228" cy="36" r="4"/>
    <circle cx="204" cy="36" r="4"/>
    <circle cx="216" cy="24" r="4"/>
    <circle cx="228" cy="12" r="4"/>
    <circle cx="204" cy="12" r="4"/>
    <circle cx="180" cy="36" r="4"/>
    <circle cx="156" cy="36" r="4"/>
    <circle cx="180" cy="12" r="4"/>
    <circle cx="156" cy="12" r="4"/>
    <circle cx="132" cy="12" r="4"/>
    <circle cx="120" cy="24" r="4"/>
    <circle cx="108" cy="36" r="4"/>
    <circle cx="84" cy="12" r="4"/>
    <circle cx="60" cy="36" r="4"/>
    <circle cx="24" cy="24" r="4"/>
  </g>
</svg>